<?xml version="1.0" standalone="no"?>
<!DOCTYPE svg PUBLIC "-//W3C//DTD SVG 1.1//EN" "http://www.w3.org/Graphics/SVG/1.1/DTD/svg11.dtd" >
<svg xmlns="http://www.w3.org/2000/svg" xmlns:svg="http://www.w3.org/2000/svg" xmlns:xlink="http://www.w3.org/1999/xlink" viewBox="0 0 1024 1024"><path d="M84.98 872.64Q85.63 814.4 115.96 763.99Q159.95 685.79 173.23 568.59Q171.12 445.87 177.71 262.87Q190.88 121.99 221.95 111.9Q189.81 99.62 253.37 101.23Q345.36 106.68 501.23 97.7Q606.65 122.28 689.29 108.62Q762.02 123.37 754.37 116.84Q804.29 132.83 814 171Q801.12 208.82 816.19 348.5Q798.53 461.16 812.14 612.16Q832.43 719.78 842.45 750.45Q830.92 767.88 861.55 745.82Q851.51 756.32 879.21 745.73Q853.34 759.58 881.29 738.04Q862.14 738.08 917.47 735.52Q929.78 756.89 927.31 757.14Q909.81 762.44 917.68 750.86Q933.02 793.27 921.37 812.22Q894 895.83 867.39 920.39Q857.51 918.99 863.51 922.22Q847.79 926.54 860.52 925.9Q849.31 899.61 838.91 908.43Q796.17 856.75 804.31 818.17Q772.58 791.82 774.54 755.92Q749.04 683.41 744.78 573.26Q720.01 488.34 736.4 363.23Q745.62 271.56 723.39 248.94Q737.72 218.96 736.57 198.11Q731.28 199.32 665.94 178.13Q583.84 195.55 496.65 174.65H266.33V250.04Q265.39 301.84 256.03 359.18Q278.89 396.83 264.37 440.38Q238.7 623.24 231.46 658.57Q236.91 712.25 200.45 795.82Q179.4 869.85 168.18 861.37Q153.03 899.35 140.92 884.15Q115.47 891.41 135.91 891.17Q93.37 880.15 116.64 860.64Q110.25 860.41 89.47 852.08ZM289.07 753.86Q286.07 771.29 302.58 751.24Q322.68 760.56 382.55 763.54Q404.25 735.93 432.92 755.86Q473.5 756.81 471.3 725.8Q478.91 745.58 470.36 735.19Q480.57 713.71 450.32 668.78V627.39H407.63Q376.16 597.46 353.28 602.6Q330.78 613.11 326.43 596.56Q325.65 563.79 320.72 536.92Q308.4 523.99 288.16 472.78Q315 457.18 320.46 455.95Q312.71 410.46 327.76 404.21Q326.21 396.35 391.44 360.07Q373.53 392.22 404.18 391.65H472.94L457.04 323.13L419.64 330.42Q356.89 298.36 341.41 316.57Q308.19 318.65 324.49 290.58Q305.15 282.9 307.92 284.59Q329.68 262.19 299.07 247.62Q320.1 260.83 326.19 265.51Q350.27 260.8 356.3 245.55Q390.59 241.55 464.7 263.95Q537.93 224.09 563.67 233.86Q597.23 246.88 635.48 252.73Q638.05 274.14 630.39 279.23Q635.64 311.92 630.32 314.46Q637.95 288.95 617.5 320.26Q570.09 285.93 574.98 288.28L530.97 313.6V393.06H605.51Q619.91 363.06 653.45 370.33Q660 363.86 651.53 396.36Q679.49 382.23 693.43 423.29Q672.93 435.26 682.64 508.39Q694.28 512.56 692.79 542.23Q690.27 580.43 654.38 603.4Q675.23 607.35 598.67 603.99Q609.01 627.13 585.08 589.88H541.39L530.49 674.76Q542.67 703.97 523.43 733.03Q504.36 747.29 512.22 740.58Q543.19 750.25 548.78 742.7Q550.45 724.66 532.92 743.12Q551.5 746.29 580.38 735.04Q583.86 742.7 602.1 737.42Q615.39 723.77 617.17 745.45Q605.56 720.92 624.51 739.12Q589.76 702.85 623.54 710.22Q611.56 690.77 620.17 685.78Q601.1 672.56 625.63 649.35Q621.79 656.99 647.41 669.15Q636.52 662.45 641.96 637.79Q636.31 651.28 677.46 649.72Q678.23 690.03 675.7 712.54Q719.7 782.36 734.82 793.64Q736.25 838.87 748.48 832.93Q734.31 871.68 729.14 857.79Q703.59 894.24 678.93 881.15Q696.22 892.98 686.07 850.58Q670.05 844.61 638.55 817.93Q652.33 790.71 657.67 810.54Q658.57 781.21 645.64 800.61Q636.51 781.55 621.65 777.58Q625.74 771.2 595.65 796.86Q579.46 814.26 541.09 807.61Q486.65 816.44 417.25 832.86L298.4 820.27L297.31 812.68Q254.04 787.39 252.81 785.6Q253.86 776.96 278.71 751.13ZM356.8 522.57Q381.9 556.36 389.22 532.63Q399.07 567.44 412.75 546.97H446.81L441.09 450.16L381.34 430.36V482.9Q348.76 523.65 388.96 536.1ZM508.39 498.66Q530.9 512.15 531.61 495.58Q536.33 517.97 536.97 521.38Q532.59 542.54 591.9 558.64Q606.21 556.87 628.63 537.08V420.25H521.06Z" fill="black"></path></svg>