<?xml version="1.0" standalone="no"?>
<!DOCTYPE svg PUBLIC "-//W3C//DTD SVG 1.1//EN" "http://www.w3.org/Graphics/SVG/1.1/DTD/svg11.dtd" >
<svg xmlns="http://www.w3.org/2000/svg" xmlns:svg="http://www.w3.org/2000/svg" xmlns:xlink="http://www.w3.org/1999/xlink" viewBox="0 0 1024 1024"><path d="M387.64 313.97Q431.44 148.15 394.47 112.66Q442.62 119 410.76 104.98Q470.34 114.1 455.11 100.95Q532.5 112.03 654.08 99.14Q656.57 107.92 798.99 97.24Q827.34 107.8 946.69 98.04Q893.61 110.01 987.39 105.1Q900.31 123.18 990.72 133.97Q900.32 162.96 988.75 179.7Q897.41 236.01 974.99 285.38Q884.55 347.94 956.6 318.62Q854.43 359.9 872.79 324.09Q760.56 360.02 811.95 324.73Q715.67 362.19 784.75 327.66Q712.37 366.91 783.79 338.33Q712.67 379.89 784.24 352.79Q713.51 404.09 785.05 385.93L791.45 437.23L833.43 439.09Q775.52 487.84 878.5 441.8Q821.41 493.97 923.53 447.25Q866.44 501.18 965.12 455.06Q888.3 509.91 979.35 570.84Q892.59 526.13 982.26 583.43Q893.44 534.99 982.77 590.55Q893.67 540.92 981.59 598.56Q886.48 557.12 946.61 617.75Q834.51 565.99 883.85 622.48Q797.46 565.81 870.75 622.42Q773.69 563.96 837.06 620.28Q748.32 563.99 823.23 622.57Q748.37 567.19 829.9 640.84Q760.37 598.02 848.59 683.09Q780.48 645.11 871.05 739.2Q803.63 699.14 890.56 790.9Q823.43 756.12 921.74 865.64Q852.32 818.08 943.34 901.03Q859.48 818.81 950.88 891.08L962.89 865.72Q884.56 764.94 979.67 836.65Q896.32 756.15 998.18 831.75Q909.47 755.91 1002.79 831.5Q942.43 758.01 1037.35 849.94Q943.69 786.81 1037.88 866.77Q943.67 815.99 1009.08 960.15Q908.46 893.11 991.13 993.31Q893.55 912.81 972.8 1006.68Q880.44 916.13 964.03 1007.68Q852.39 915.82 902.08 977.37Q787.39 860.91 843.03 895.48Q749.58 779.9 788.28 761.72Q683.47 605.11 739.71 630.13Q670.4 565.8 720.86 619.2Q640.34 560.03 646.39 615.91H457.7V675.47Q508.68 638.04 458.58 738.07Q510.68 703.92 563.92 804.26Q514.62 770.81 568.32 857.01Q518.54 787.1 573.58 865.55Q523.31 787.03 579.09 861.3Q539.45 773.12 619.45 837.23Q586.37 749.19 660.7 823.78Q616.66 748.82 688.48 838.75Q635.4 776.17 699.02 866.69Q635.37 791.93 698.04 875.54Q632.46 800.85 682.95 894.14Q609.42 824.88 653 919.6Q578.44 847.82 616.05 947.66Q541.63 875.04 581.31 972.5Q501.39 905.93 441.39 1001.14Q479.48 913.87 426.29 1005.5Q463.55 914.19 409.09 998.74Q443.7 908.02 397.05 973.9Q438.42 863 392.97 841.67Q430.3 578.03 387.54 360.05Q430.39 374.08 387.33 314.04ZM78 200.77Q93.36 190.84 110.97 171.79Q125.33 191.09 115.78 171.72Q150.65 190 167.9 170.9Q204.35 189.91 222.47 171.55Q289.47 190.8 285.67 175.35Q320.39 194.91 290.42 175.41Q349.57 195.11 319.14 205.39Q359.7 261.11 323.51 341.82Q359.43 416.09 323.74 414.98Q359.42 619.83 321.58 734.4Q355.59 714.94 313.57 790.83Q343.61 726.04 288.78 800.4Q298.41 728.99 204.02 801.85Q164.48 729.03 123.17 800.33Q109.39 725.85 93.22 792.11Q91.51 714.99 77.57 712.24Q80.43 579.91 72.36 372.59Q80.53 383.16 72.3 320.2Q80.6 250.99 77.99 200.72ZM725.55 259.21Q746.49 287.85 859.53 257.98Q816.59 285.14 898.27 252.74Q816.32 277.99 900.18 236.42Q820.43 247.06 902.65 206.08L906.04 167.25H457.79V259.38ZM455.65 386.24L457.84 441.03H702.15V324.11H635.17Q551.33 360.03 586.2 325.87Q514.57 364.15 459.44 329.44Q508.61 367.97 456.63 343.38Q506.7 394.81 455.82 368.13Q506.67 417.97 455.8 386.18ZM147.06 721.61H250.66V620.28H198.6Q191.52 563.91 158.96 621.92Q161.47 566.95 143.4 630.16V679.67ZM193.23 309.56Q229.65 345.13 216.55 310.41Q269.61 344.8 252.44 306.82Q281.54 339.16 253.81 297.95Q282.42 322.82 254.36 287.22Q282.33 310.15 253.31 269.04L252.65 236.7H224.75Q235.48 263.11 196.21 235.33Q200.53 259.84 169.45 234.2L141.63 228.53V291.47Q157.64 337 139.83 304.92Q163.69 342.09 192.88 309.7ZM145.4 444.53L177.75 442.6Q211.32 492.13 205.82 441.72Q245.5 490.18 230.94 440.97H253.35V376.03H141.65Z" fill="black"></path></svg>