<?xml version="1.0" standalone="no"?>
<!DOCTYPE svg PUBLIC "-//W3C//DTD SVG 1.1//EN" "http://www.w3.org/Graphics/SVG/1.1/DTD/svg11.dtd" >
<svg xmlns="http://www.w3.org/2000/svg" xmlns:svg="http://www.w3.org/2000/svg" xmlns:xlink="http://www.w3.org/1999/xlink" viewBox="0 0 1024 1024"><path d="M101.5 853.0Q103.5 822.0 127.5 755.0Q156.5 681.0 172.5 560.5Q188.5 440.0 192.5 278.0Q195.5 125.0 204.5 118.0Q206.5 114.0 270.5 113.5Q334.5 113.0 483.5 113.0Q598.5 113.0 679.5 114.5Q760.5 116.0 769.5 118.0Q791.5 118.0 798.5 155.0Q805.5 192.0 809.5 329.0Q816.5 464.0 827.5 594.5Q838.5 725.0 845.5 750.0Q850.5 762.0 857.5 762.0Q857.5 762.0 861.5 761.5Q865.5 761.0 872.5 748.0Q881.5 737.0 897.5 737.0Q913.5 737.0 921.5 750.0Q922.5 754.0 922.5 760.0Q922.5 780.0 909.0 831.5Q895.5 883.0 883.5 903.0Q873.5 911.0 863.5 911.0Q859.5 911.0 850.0 908.5Q840.5 906.0 825.5 890.0Q805.5 869.0 793.0 835.5Q780.5 802.0 768.5 739.0Q753.5 671.0 746.5 584.5Q739.5 498.0 733.5 354.0Q733.5 289.0 730.0 244.0Q726.5 199.0 724.5 195.0Q721.5 192.0 661.0 190.0Q600.5 188.0 494.5 188.0H271.5V260.0Q271.5 291.0 268.0 342.0Q264.5 393.0 258.5 442.0Q240.5 608.0 230.0 667.0Q219.5 726.0 201.5 779.0Q174.5 861.0 161.5 878.5Q148.5 896.0 136.5 896.0Q127.5 896.0 118.5 890.0Q101.5 884.0 101.5 860.0Q101.5 857.0 101.5 853.0ZM274.5 766.0Q278.5 757.0 296.5 754.5Q314.5 752.0 366.5 748.0Q402.5 746.0 428.5 744.5Q454.5 743.0 458.5 743.0Q462.5 743.0 464.0 727.5Q465.5 712.0 465.5 678.0V613.0H415.5Q372.5 613.0 348.0 606.5Q323.5 600.0 316.5 586.0Q314.5 579.0 311.0 552.0Q307.5 525.0 305.5 489.0Q304.5 466.0 304.5 448.0Q304.5 403.0 314.0 390.0Q323.5 377.0 372.5 377.0Q381.5 377.0 391.5 377.0H460.5L456.5 312.0L400.5 311.0Q352.5 311.0 337.0 306.5Q321.5 302.0 316.5 284.0Q313.5 275.0 313.5 270.0Q313.5 269.0 314.0 265.5Q314.5 262.0 323.5 255.0Q330.5 248.0 358.5 246.0Q386.5 244.0 474.5 244.0Q535.5 244.0 575.5 246.0Q615.5 248.0 622.5 249.0Q634.5 258.0 634.5 275.5Q634.5 293.0 624.5 298.0Q618.5 300.0 603.5 301.0Q588.5 302.0 568.5 303.0L525.5 305.0V374.0H591.5Q631.5 374.0 647.5 375.5Q663.5 377.0 667.5 384.0Q672.5 390.0 675.5 414.0Q678.5 438.0 678.5 489.0Q679.5 515.0 679.5 534.0Q679.5 584.0 670.0 597.0Q660.5 610.0 617.5 610.0Q607.5 610.0 595.5 609.0H528.5L525.5 669.0Q523.5 701.0 523.5 717.0Q523.5 728.0 524.5 733.0Q525.5 738.0 532.5 738.0Q538.5 738.0 546.5 735.0Q555.5 734.0 567.5 732.0Q579.5 730.0 588.5 730.0Q604.5 730.0 606.5 727.5Q608.5 725.0 608.5 720.0Q608.5 715.0 606.5 705.0Q605.5 697.0 605.5 690.0Q605.5 676.0 612.0 664.5Q618.5 653.0 636.5 653.0Q637.5 653.0 639.5 653.0Q647.5 653.0 657.5 664.5Q667.5 676.0 690.5 721.0Q723.5 782.0 728.0 803.5Q732.5 825.0 732.5 833.0Q732.5 853.0 719.5 865.0Q707.5 878.0 697.5 878.0Q691.5 878.0 681.0 870.5Q670.5 863.0 658.5 822.0Q652.5 807.0 648.0 796.5Q643.5 786.0 640.5 784.0Q638.5 784.0 627.0 786.0Q615.5 788.0 600.5 791.0Q584.5 795.0 536.0 802.0Q487.5 809.0 427.5 815.0L289.5 829.0L278.5 815.0Q265.5 802.0 265.5 790.5Q265.5 779.0 274.5 766.0ZM376.5 539.0Q383.5 548.0 408.5 548.0Q413.5 548.0 418.5 548.0H460.5L456.5 442.0L368.5 437.0V478.0Q368.5 528.0 376.5 539.0ZM525.5 482.0Q525.5 500.0 527.0 515.0Q528.5 530.0 530.5 534.0Q539.5 541.0 572.0 541.0Q604.5 541.0 609.5 534.0V438.0H525.5Z" fill="black"></path></svg>