<?xml version="1.0" standalone="no"?>
<!DOCTYPE svg PUBLIC "-//W3C//DTD SVG 1.1//EN" "http://www.w3.org/Graphics/SVG/1.1/DTD/svg11.dtd" >
<svg xmlns="http://www.w3.org/2000/svg" xmlns:svg="http://www.w3.org/2000/svg" xmlns:xlink="http://www.w3.org/1999/xlink" viewBox="0 0 1024 1024"><path d="M430.5 349.0Q431.5 148.0 438.5 125.0Q442.5 119.0 456.5 116.5Q470.5 114.0 505.5 112.0Q532.5 112.0 594.5 110.0Q656.5 108.0 726.5 108.0Q827.5 108.0 860.5 109.0Q893.5 110.0 897.5 117.0Q900.5 123.0 900.5 149.0Q900.5 163.0 899.0 199.5Q897.5 236.0 886.5 317.0Q884.5 348.0 869.5 354.0Q854.5 360.0 793.5 360.0Q760.5 360.0 738.0 361.0Q715.5 362.0 713.5 364.0Q712.5 367.0 712.5 376.0Q712.5 380.0 713.0 392.0Q713.5 404.0 713.5 429.0L719.5 486.0L757.5 488.0Q775.5 488.0 798.5 491.0Q821.5 494.0 839.5 497.0Q866.5 501.0 877.5 505.5Q888.5 510.0 890.5 519.0Q892.5 526.0 893.0 530.5Q893.5 535.0 893.5 537.0Q893.5 541.0 892.5 544.0Q886.5 557.0 860.5 561.5Q834.5 566.0 803.5 566.0Q797.5 566.0 791.5 566.0Q773.5 564.0 761.0 564.0Q748.5 564.0 748.5 566.0Q748.5 567.0 754.5 582.5Q760.5 598.0 771.5 621.0Q780.5 645.0 792.0 672.0Q803.5 699.0 809.5 719.0Q823.5 756.0 838.0 787.0Q852.5 818.0 857.5 819.0Q859.5 819.0 864.5 810.0L875.5 787.0Q884.5 765.0 890.5 760.5Q896.5 756.0 907.5 756.0Q909.5 756.0 911.5 756.0Q942.5 758.0 943.0 772.5Q943.5 787.0 943.5 788.0Q943.5 816.0 917.5 873.0Q908.5 893.0 901.0 903.0Q893.5 913.0 884.5 915.0Q880.5 916.0 876.5 916.0Q852.5 916.0 820.0 888.5Q787.5 861.0 766.5 814.0Q749.5 780.0 716.5 692.5Q683.5 605.0 672.5 573.0Q670.5 566.0 655.5 563.0Q640.5 560.0 587.5 560.0H508.5V614.0Q508.5 638.0 509.5 671.0Q510.5 704.0 512.5 731.0Q514.5 771.0 516.5 779.0Q518.5 787.0 521.5 787.0Q523.5 787.0 526.5 783.0Q539.5 773.0 563.0 761.0Q586.5 749.0 600.5 749.0Q616.5 749.0 626.0 762.5Q635.5 776.0 635.5 788.0Q635.5 792.0 634.5 796.0Q632.5 801.0 621.0 813.0Q609.5 825.0 593.5 836.0Q578.5 848.0 560.0 861.5Q541.5 875.0 528.5 884.0Q501.5 906.0 490.5 910.0Q479.5 914.0 473.5 914.0Q463.5 914.0 454.5 908.0Q443.5 908.0 441.0 885.5Q438.5 863.0 436.5 765.0Q430.5 578.0 430.5 400.0Q430.5 374.0 430.5 349.0ZM86.5 223.0Q93.5 191.0 123.5 191.0Q125.5 191.0 128.5 191.0Q150.5 190.0 186.5 190.0Q204.5 190.0 247.0 190.5Q289.5 191.0 317.5 195.0Q320.5 195.0 322.5 195.0Q349.5 195.0 354.5 228.0Q359.5 261.0 359.5 380.0Q359.5 416.0 359.5 461.0Q359.5 620.0 357.5 667.5Q355.5 715.0 348.5 719.0Q343.5 726.0 321.0 727.5Q298.5 729.0 226.5 729.0Q164.5 729.0 137.0 727.5Q109.5 726.0 103.5 720.0Q91.5 715.0 86.0 647.5Q80.5 580.0 80.5 414.0Q80.5 383.0 80.5 356.0Q80.5 251.0 86.5 223.0ZM659.5 288.0Q746.5 288.0 781.5 286.5Q816.5 285.0 816.5 281.0Q816.5 278.0 818.5 262.5Q820.5 247.0 820.5 229.0L823.5 186.0H508.5V288.0ZM506.5 429.0 508.5 490.0H638.5V360.0H577.5Q551.5 360.0 533.0 362.0Q514.5 364.0 510.5 366.0Q508.5 368.0 507.5 381.5Q506.5 395.0 506.5 409.0Q506.5 418.0 506.5 429.0ZM163.5 656.0H278.5V564.0H220.5Q191.5 564.0 176.5 565.5Q161.5 567.0 159.5 573.0V618.0ZM214.5 344.0Q229.5 345.0 240.5 345.0Q269.5 345.0 280.5 341.0Q281.5 339.0 282.0 331.0Q282.5 323.0 282.5 319.0Q282.5 310.0 281.5 299.0L280.5 263.0H249.5Q235.5 263.0 218.0 261.5Q200.5 260.0 188.5 260.0L157.5 254.0V324.0Q157.5 337.0 155.5 339.0Q163.5 342.0 214.5 344.0ZM161.5 494.0 197.5 492.0Q211.5 492.0 228.5 491.0Q245.5 490.0 256.5 490.0H281.5V418.0H157.5Z" fill="black"></path></svg>